<svg xmlns="http://www.w3.org/2000/svg" fill="none" viewBox="0 0 14 14"><g id="bell-notification--alert-bell-ring-notification-alarm"><path id="Union" fill="#cde4e4" fill-rule="evenodd" d="M7 .25a4.372 4.372 0 0 0-4.372 4.372c0 .825-.145 1.453-.348 1.929-.056.133-.17.248-.39.39a8.454 8.454 0 0 1-.275.162l-.093.054a4.5 4.5 0 0 0-.426.273l.297.401-.297-.401c-.518.383-.708.973-.682 1.505.025.517.257 1.057.69 1.383a.76.76 0 0 0 .087.06 1.8 1.8 0 0 0 .226.125c.196.094.493.208.928.318.87.22 2.311.429 4.655.429 2.344 0 3.785-.209 4.655-.429.435-.11.732-.224.928-.318a2.07 2.07 0 0 0 .293-.17.764.764 0 0 0 .02-.015c.433-.326.665-.866.69-1.383.026-.532-.164-1.122-.682-1.505a4.51 4.51 0 0 0-.426-.273l-.093-.054a6.687 6.687 0 0 1-.274-.163c-.22-.14-.335-.256-.392-.389a3.78 3.78 0 0 1-.117-.316c-.142-.55-.23-1.07-.23-1.613A4.371 4.371 0 0 0 7 .25Z" clip-rule="evenodd"></path><path id="Ellipse 86 (Stroke)" fill="#469595" fill-rule="evenodd" d="M5.296 12.135a.5.5 0 0 1 .542-.15c.254.086.628.152 1.162.152.534 0 .908-.066 1.162-.152a.5.5 0 0 1 .601.71 2 2 0 0 1-3.526 0 .5.5 0 0 1 .059-.56Z" clip-rule="evenodd"></path></g></svg>