<svg xmlns="http://www.w3.org/2000/svg" viewBox="0 0 2500 2500" version="1.1">
	<path d="M 568.233 84.574 C 558.682 86.666, 548.686 91.022, 530.275 101.116 C 370.714 188.597, 234.418 297.756, 114.010 434.500 C 100.030 450.377, 93.564 459.681, 89.194 470.210 C 80.768 490.510, 80.991 517.880, 89.752 538.732 C 101.139 565.834, 128.451 587.387, 157.298 592.034 C 168.763 593.881, 186.284 592.799, 197.297 589.565 C 217.345 583.677, 227.053 576.564, 249.516 551.303 C 358.053 429.245, 474.393 335.976, 613.500 259.498 C 640.651 244.571, 648.348 238.884, 657.486 227 C 663.926 218.624, 667.539 211.572, 671.575 199.500 C 674.799 189.855, 675.314 186.957, 675.761 175.968 C 676.512 157.471, 673.407 144.362, 664.505 128.443 C 651.597 105.362, 630.607 90.179, 603.685 84.450 C 595.247 82.655, 576.697 82.719, 568.233 84.574 M 1896 84.426 C 1864.683 91.377, 1841.928 110.526, 1829.920 140.032 C 1825.191 151.653, 1823.644 161.541, 1824.299 175.968 C 1825.324 198.550, 1832.983 217.146, 1847.889 233.247 C 1855.427 241.389, 1862.109 245.920, 1887 259.768 C 2029.791 339.209, 2141.899 429.128, 2250.433 551.267 C 2272.863 576.509, 2282.640 583.673, 2302.703 589.565 C 2313.716 592.799, 2331.237 593.881, 2342.702 592.034 C 2372.254 587.273, 2400.291 564.614, 2411.004 536.833 C 2419.558 514.651, 2418.823 487.177, 2409.120 466.442 C 2404.765 457.137, 2399.651 450.083, 2385.961 434.500 C 2323.742 363.676, 2254.325 297.789, 2182.500 241.385 C 2115.796 189.002, 2046.404 143.253, 1969.801 101.157 C 1950.896 90.768, 1941.392 86.686, 1931.038 84.508 C 1922.525 82.717, 1903.894 82.674, 1896 84.426 M 1218 415.075 C 1073.661 419.236, 935.568 453.945, 804.500 519.006 C 685.584 578.034, 583.252 657.087, 494.480 758.500 C 356.490 916.139, 270.536 1117.945, 252.553 1326.500 C 247.651 1383.359, 247.657 1447.902, 252.570 1505.420 C 272.953 1744.043, 381.389 1969.736, 556.527 2138.058 C 718.058 2293.305, 925.636 2389.587, 1147 2411.941 C 1185.609 2415.839, 1199.778 2416.461, 1250 2416.461 C 1300.222 2416.461, 1314.391 2415.839, 1353 2411.941 C 1512.111 2395.873, 1666.186 2340.970, 1800.500 2252.478 C 1958.785 2148.194, 2086.860 1997.954, 2163.411 1826.763 C 2212.410 1717.186, 2239.702 1608.746, 2249.046 1486.500 C 2250.790 1463.697, 2251.411 1391.155, 2250.084 1365.405 C 2245.158 1269.812, 2228.631 1182.856, 2198.546 1094.241 C 2137.849 915.462, 2029.831 760.123, 1882 639.024 C 1779.568 555.115, 1656.658 490.710, 1527.910 453.482 C 1427.907 424.565, 1326.169 411.957, 1218 415.075 M 1222 593.593 C 1185.254 595.315, 1159.427 597.682, 1129 602.114 C 996.332 621.441, 867 675.094, 759.535 755.385 C 704.437 796.551, 651.081 847.957, 608.399 901 C 521.766 1008.662, 463.604 1137.129, 439.525 1274 C 426.228 1349.585, 424.030 1438.869, 433.542 1517 C 453.604 1681.777, 525.232 1839.541, 636.264 1963.500 C 649.700 1978.501, 682.663 2011.575, 698.500 2025.947 C 778.484 2098.531, 869.686 2153.206, 972.911 2190.456 C 1040.627 2214.892, 1110.054 2229.657, 1188 2236.199 C 1208.892 2237.953, 1291.108 2237.953, 1312 2236.199 C 1335.602 2234.218, 1367.173 2230.351, 1387.350 2226.968 C 1539.284 2201.501, 1683.873 2131.874, 1798 2029.220 C 1813.700 2015.098, 1845.576 1983.355, 1859.979 1967.500 C 1910.454 1911.934, 1951.782 1851.607, 1985.139 1784.804 C 2047.631 1659.649, 2076.109 1529.844, 2071.902 1389.328 C 2067.694 1248.741, 2028.442 1114.941, 1955.454 992.380 C 1902.446 903.369, 1825.489 818.631, 1739.778 754.896 C 1613.431 660.944, 1464.497 606.177, 1305 595.015 C 1289.660 593.942, 1234.665 592.999, 1222 593.593 M 1232.834 830.567 C 1197.616 836.939, 1167.345 867.752, 1161.997 902.670 C 1161.283 907.330, 1161.044 992.730, 1161.243 1171.500 C 1161.520 1420.118, 1161.627 1433.806, 1163.330 1439.500 C 1166.307 1449.455, 1173.437 1463.041, 1179.995 1471.254 C 1191.363 1485.492, 1207.059 1496.218, 1224.537 1501.693 L 1233.500 1504.500 1457 1504.500 C 1671.071 1504.500, 1680.774 1504.422, 1686.998 1502.658 C 1702.341 1498.310, 1714.941 1491.093, 1726.343 1480.120 C 1738.637 1468.290, 1746.774 1454.627, 1751.128 1438.500 C 1754.054 1427.664, 1754.339 1405.957, 1751.698 1395.072 C 1743.995 1363.329, 1719.151 1337.991, 1687.070 1329.159 L 1677.500 1326.524 1508.250 1326.229 L 1339 1325.934 1338.992 1117.217 C 1338.987 977.716, 1338.640 906.377, 1337.946 902.099 C 1333.238 873.079, 1310.003 845.157, 1281.733 834.545 C 1267.654 829.259, 1248.617 827.711, 1232.834 830.567" stroke="none" fill="#b1b8c0" fill-rule="evenodd"></path>
</svg>