<svg viewBox="-0.5 -0.5 64 64" xmlns="http://www.w3.org/2000/svg" height="64" width="64"><path d="M13.46625 59.338125a18.03375 2.349375 0 1 0 36.0675 0 18.03375 2.349375 0 1 0 -36.0675 0Z" fill="#45413c" opacity=".15" stroke-width="1"></path><path d="M28.363125 9.699375a3.1368750000000003 3.1368750000000003 0 1 0 6.273750000000001 0 3.1368750000000003 3.1368750000000003 0 1 0 -6.273750000000001 0Z" fill="#fff48c" stroke="#45413c" stroke-linecap="round" stroke-linejoin="round" stroke-width="1"></path><path d="M53.458124999999995 44.191875c0 -4.0425 -4.449375 -6.733125 -6.273750000000001 -10.185s-0.984375 -9.1875 -3.1368750000000003 -15.684375S35.949375 10.5 31.5 10.5s-10.395 1.3125 -12.547500000000001 7.875 -1.3125 12.219375000000001 -3.1368750000000003 15.75 -6.273750000000001 6.1425 -6.273750000000001 10.185Z" fill="#ffe500" stroke-width="1"></path><path d="M31.5 15.973125c4.83 0 11.26125 1.3125 13.755 7.507499999999999a33.009375 33.009375 0 0 0 -1.2075 -5.105625C41.895 11.8125 35.949375 10.5 31.5 10.5s-10.395 1.3125 -12.547500000000001 7.875a33.009375 33.009375 0 0 0 -1.2075 5.158125c2.49375 -6.286875 8.924999999999999 -7.56 13.755 -7.56Z" fill="#fff48c" stroke-width="1"></path><path d="M53.458124999999995 44.191875c0 -4.0425 -4.449375 -6.733125 -6.273750000000001 -10.185s-0.984375 -9.1875 -3.1368750000000003 -15.684375S35.949375 10.5 31.5 10.5s-10.395 1.3125 -12.547500000000001 7.875 -1.3125 12.219375000000001 -3.1368750000000003 15.75 -6.273750000000001 6.1425 -6.273750000000001 10.185Z" fill="none" stroke="#45413c" stroke-linecap="round" stroke-linejoin="round" stroke-width="1"></path><path d="M9.541875 44.191875a21.958125 2.349375 0 1 0 43.91625 0 21.958125 2.349375 0 1 0 -43.91625 0Z" fill="#ffe500" stroke-width="1"></path><path d="M12.481875 45.373125a120.75 120.75 0 0 1 19.018125 -1.1812500000000001 120.75 120.75 0 0 1 19.018125 1.1812500000000001c1.86375 -0.354375 2.9400000000000004 -0.7481249999999999 2.9400000000000004 -1.1812500000000001 0 -1.3125 -9.830625 -2.349375 -21.958125 -2.349375s-21.958125 1.05 -21.958125 2.349375c0 0.43312500000000004 1.07625 0.826875 2.9400000000000004 1.1812500000000001Z" fill="#ebcb00" stroke-width="1"></path><path d="M9.541875 44.191875a21.958125 2.349375 0 1 0 43.91625 0 21.958125 2.349375 0 1 0 -43.91625 0Z" fill="none" stroke="#45413c" stroke-linecap="round" stroke-linejoin="round" stroke-width="1"></path><path d="m31.5 41.8425 -4.081875 0a4.69875 4.69875 0 1 0 8.16375 0c-1.325625 0.013125 -2.6775 0 -4.081875 0Z" fill="#ffe500" stroke-width="1"></path><path d="m31.5 44.848125 4.633125 0a4.160625 4.160625 0 0 0 0 -0.695625 4.685625 4.685625 0 0 0 -0.616875 -2.296875l-4.081875 0 -4.081875 0a4.685625 4.685625 0 0 0 -0.616875 2.296875 4.160625 4.160625 0 0 0 0 0.695625c1.640625 0.013125 3.17625 0 4.764375 0Z" fill="#ebcb00" stroke-width="1"></path><path d="m31.5 41.8425 -4.081875 0a4.69875 4.69875 0 1 0 8.16375 0c-1.325625 0.013125 -2.6775 0 -4.081875 0Z" fill="none" stroke="#45413c" stroke-linecap="round" stroke-linejoin="round" stroke-width="1"></path><path d="M56.805 51.043125 10.78875 5.026875A1.96875 1.96875 0 1 0 8.00625 7.796250000000001L54.022499999999994 53.8125a1.96875 1.96875 0 0 0 2.7825 -2.7693749999999997Z" fill="#ff6242" stroke="#45413c" stroke-linecap="round" stroke-linejoin="round" stroke-width="1"></path></svg>