<svg xmlns="http://www.w3.org/2000/svg" viewBox="0 0 2500 2500" version="1.1">
	<path d="M 1200 151.509 C 1089.047 159.910, 981.786 195.443, 888.884 254.574 C 731.618 354.671, 622.331 515.264, 588.143 696.500 C 583.515 721.037, 582.205 730.780, 563.940 876.500 C 545.206 1025.964, 542.866 1043.185, 536.987 1074.908 C 498.625 1281.902, 403.285 1475.543, 262.949 1631.500 C 255.030 1640.300, 226.377 1671.226, 199.276 1700.224 L 150 1752.947 150 1801.974 L 150 1851 1250 1851 L 2350 1851 2350 1801.989 L 2350 1752.978 2300.727 1700.239 C 2273.627 1671.233, 2244.974 1640.300, 2237.054 1631.500 C 2096.885 1475.756, 2001.277 1281.711, 1963.109 1075.500 C 1957.148 1043.297, 1954.808 1026.088, 1936.035 876.419 C 1917.649 729.841, 1916.418 720.678, 1911.857 696.500 C 1872.946 490.224, 1737.136 312.232, 1547.500 218.974 C 1479.310 185.440, 1405.356 163.415, 1331 154.498 C 1293.719 150.027, 1236.742 148.727, 1200 151.509 M 1210 255.555 C 1111.946 262.451, 1017.752 294.413, 935.992 348.532 C 902.760 370.529, 877.826 391.089, 846.947 421.956 C 807.962 460.925, 780.207 497.195, 754.320 543 C 720.356 603.097, 696.843 671.051, 687.007 737.539 C 685.946 744.711, 676.943 815.361, 667.001 894.539 C 657.058 973.718, 647.559 1047.275, 645.891 1058 C 607.519 1304.757, 497.699 1531.663, 327.500 1715.845 C 318.150 1725.963, 307.877 1737.112, 304.670 1740.621 L 298.841 1747 1250.129 1747 L 2201.416 1747 2197.376 1742.750 C 2172.674 1716.767, 2146.240 1687.227, 2127.662 1664.848 C 1992.645 1502.201, 1901.065 1308.199, 1861.495 1101 C 1854.940 1066.677, 1850.791 1036.650, 1832.963 894.500 C 1823.029 815.300, 1814.039 744.650, 1812.983 737.500 C 1801.925 662.591, 1773.030 585.103, 1731.692 519.500 C 1709.118 483.675, 1685.698 454.628, 1653.037 421.950 C 1622.254 391.150, 1597.286 370.559, 1564.008 348.532 C 1459.697 279.485, 1335.088 246.758, 1210 255.555 M 948.426 2059.741 C 949.944 2086.532, 952.570 2103.861, 958.579 2126.733 C 968.871 2165.913, 988.911 2205.278, 1015.485 2238.513 C 1031.567 2258.627, 1056.715 2281.854, 1079 2297.177 C 1111.692 2319.657, 1150.055 2336.134, 1187.740 2343.882 C 1211.626 2348.793, 1219.219 2349.475, 1250 2349.475 C 1280.781 2349.475, 1288.374 2348.793, 1312.260 2343.882 C 1387.250 2328.464, 1455.366 2282.780, 1499.204 2218.500 C 1531.552 2171.068, 1548.162 2120.720, 1551.582 2059.741 L 1552.241 2047.982 1499.870 2048.241 L 1447.500 2048.500 1446.885 2059.500 C 1442.372 2140.288, 1389.192 2210.054, 1312.735 2235.492 C 1270.772 2249.454, 1229.224 2249.453, 1187.252 2235.488 C 1167.311 2228.853, 1147.037 2218.208, 1130.792 2205.842 C 1084.881 2170.893, 1056.245 2117.147, 1053.132 2060.087 L 1052.500 2048.500 1000.130 2048.241 L 947.759 2047.982 948.426 2059.741" stroke="none" fill="#9ca3af" fill-rule="evenodd"></path>
</svg>