<svg viewBox="-0.5 -0.5 64 64" xmlns="http://www.w3.org/2000/svg" height="64" width="64"><path d="M11.431875000000002 59.075624999999995a20.068125 2.611875 0 1 0 40.13625 0 20.068125 2.611875 0 1 0 -40.13625 0Z" fill="#45413c" opacity=".15" stroke-width="1"></path><path d="M28.00875 8.203125a3.49125 3.49125 0 1 0 6.9825 0 3.49125 3.49125 0 1 0 -6.9825 0Z" fill="#fff48c" stroke="#45413c" stroke-linecap="round" stroke-linejoin="round" stroke-width="1"></path><path d="M55.93875 46.606874999999995c0 -4.515 -4.948125 -7.494375 -6.9825 -11.34s-1.089375 -10.185 -3.49125 -17.45625S36.448125 9.0825 31.5 9.0825 19.936875 10.5 17.535 17.810625s-1.4568750000000001 13.5975 -3.49125 17.45625 -6.9825 6.825 -6.9825 11.34Z" fill="#ffe500" stroke-width="1"></path><path d="M31.5 15.185625c5.38125 0 12.534375 1.4175 15.30375 8.37375a34.7025 34.7025 0 0 0 -1.3125 -5.74875C43.063125 10.5 36.448125 9.0825 31.5 9.0825S19.936875 10.5 17.535 17.810625a34.873125 34.873125 0 0 0 -1.3125 5.735625c2.743125 -6.943125 9.89625 -8.360625 15.2775 -8.360625Z" fill="#fff48c" stroke-width="1"></path><path d="M55.93875 46.606874999999995c0 -4.515 -4.948125 -7.494375 -6.9825 -11.34s-1.089375 -10.185 -3.49125 -17.45625S36.448125 9.0825 31.5 9.0825 19.936875 10.5 17.535 17.810625s-1.4568750000000001 13.5975 -3.49125 17.45625 -6.9825 6.825 -6.9825 11.34Z" fill="none" stroke="#45413c" stroke-linecap="round" stroke-linejoin="round" stroke-width="1"></path><path d="M7.06125 46.606874999999995a24.438750000000002 2.611875 0 1 0 48.877500000000005 0 24.438750000000002 2.611875 0 1 0 -48.877500000000005 0Z" fill="#ffe500" stroke-width="1"></path><path d="M31.5 43.995000000000005c-13.4925 0 -24.438750000000002 1.168125 -24.438750000000002 2.625 0 0.4725 1.194375 0.931875 3.28125 1.3125a134.4525 134.4525 0 0 1 21.157500000000002 -1.3125 134.4525 134.4525 0 0 1 21.157500000000002 1.3125c2.086875 -0.380625 3.28125 -0.84 3.28125 -1.3125 0 -1.4568750000000001 -10.94625 -2.625 -24.438750000000002 -2.625Z" fill="#ebcb00" stroke-width="1"></path><path d="M7.06125 46.606874999999995a24.438750000000002 2.611875 0 1 0 48.877500000000005 0 24.438750000000002 2.611875 0 1 0 -48.877500000000005 0Z" fill="none" stroke="#45413c" stroke-linecap="round" stroke-linejoin="round" stroke-width="1"></path><path d="m31.5 43.995000000000005 -4.54125 0a5.25 5.25 0 1 0 9.0825 0c-1.4831249999999998 0.013125 -2.979375 0 -4.54125 0Z" fill="#ffe500" stroke-width="1"></path><path d="m31.5 47.32875 5.158125 0a4.83 4.83 0 0 0 0.07875 -0.76125 5.25 5.25 0 0 0 -0.695625 -2.625l-4.54125 0 -4.54125 0a5.25 5.25 0 0 0 -0.695625 2.625 4.83 4.83 0 0 0 0.07875 0.76125c1.68 0.02625 3.38625 0 5.158125 0Z" fill="#ebcb00" stroke-width="1"></path><path d="m31.5 43.995000000000005 -4.54125 0a5.25 5.25 0 1 0 9.0825 0c-1.4831249999999998 0.013125 -2.979375 0 -4.54125 0Z" fill="none" stroke="#45413c" stroke-linecap="round" stroke-linejoin="round" stroke-width="1"></path></svg>