<svg xmlns="http://www.w3.org/2000/svg" fill="none" viewBox="0 0 48 48"><g id="calendar-mark--calendar-date-day-month-mark"><path id="Subtract" fill="#b1b8c0" fill-rule="evenodd" d="M38.495 7.21a59.829 59.829 0 0 0-.043-1.638c-.081-2.01-1.458-3.87-3.748-4.007A28.402 28.402 0 0 0 33 1.518c-.657 0-1.22.017-1.703.047-2.29.138-3.668 1.997-3.749 4.007a56.39 56.39 0 0 0-.03.964 170.092 170.092 0 0 0-7.035 0 59.348 59.348 0 0 0-.031-.964c-.081-2.01-1.458-3.87-3.749-4.007A28.402 28.402 0 0 0 15 1.518c-.657 0-1.22.017-1.704.047-2.29.138-3.667 1.997-3.748 4.007-.02.483-.035 1.032-.043 1.638a72.99 72.99 0 0 0-1.652.202c-2.862.381-5.068 2.554-5.479 5.418-.417 2.91-.874 7.506-.874 13.67s.457 10.76.874 13.67c.41 2.864 2.617 5.037 5.48 5.419 3.198.426 8.514.911 16.146.911 7.632 0 12.948-.485 16.147-.911 2.862-.382 5.068-2.554 5.479-5.419.417-2.91.874-7.506.874-13.67s-.457-10.76-.874-13.67c-.41-2.864-2.617-5.037-5.48-5.418a78.106 78.106 0 0 0-1.651-.202ZM20 25a2 2 0 0 1 2-2h4a2 2 0 1 1 0 4h-4a2 2 0 0 1-2-2Zm13-2a2 2 0 1 0 0 4h4a2 2 0 1 0 0-4h-4Zm-16 2a2 2 0 0 0-2-2h-4a2 2 0 1 0 0 4h4a2 2 0 0 0 2-2Zm5 8a2 2 0 1 0 0 4h4a2 2 0 1 0 0-4h-4Zm9 2a2 2 0 0 1 2-2h4a2 2 0 1 1 0 4h-4a2 2 0 0 1-2-2Zm-16-2a2 2 0 1 1 0 4h-4a2 2 0 1 1 0-4h4Z" clip-rule="evenodd"></path></g></svg>