<svg xmlns="http://www.w3.org/2000/svg" viewBox="0 0 2500 2500" version="1.1">
	<path d="M 1271 406.008 C 1065.914 418.165, 879.897 511.063, 749.399 666.500 C 705.919 718.289, 665.823 782.774, 640.585 841.500 C 637.512 848.650, 634.211 856.059, 633.249 857.964 L 631.500 861.429 613.500 864.088 C 582.004 868.742, 555.965 874.474, 527 883.127 C 359.867 933.060, 221.191 1051.431, 146.040 1208.307 C 88.652 1328.103, 71.366 1461.136, 96.120 1592.500 C 110.850 1670.673, 141.936 1747.101, 187.339 1816.775 C 235.653 1890.914, 304.117 1957, 380.500 2003.228 C 454.239 2047.856, 535.397 2075.137, 629.500 2086.928 C 671.287 2092.165, 711.680 2093.968, 787.644 2093.988 C 837.244 2094.001, 850.752 2093.246, 861.772 2089.845 C 891.633 2080.631, 915.510 2054.948, 922.648 2024.366 C 925.292 2013.038, 925.030 1992.390, 922.104 1981.500 C 915.282 1956.113, 897.839 1935.279, 873.500 1923.446 C 857.090 1915.469, 860.819 1915.792, 775.500 1914.959 C 689.326 1914.117, 673.830 1913.240, 633.689 1906.932 C 566.463 1896.368, 509.002 1874.696, 458 1840.668 C 368.361 1780.862, 303.110 1687.627, 276.620 1581.500 C 261.060 1519.163, 259.943 1447.300, 273.555 1384.341 C 298.412 1269.374, 367.763 1168.983, 465.729 1106.156 C 504.867 1081.055, 550.431 1061.179, 594.485 1049.989 C 620.780 1043.310, 644.482 1039.543, 676.446 1036.962 C 710.208 1034.236, 736.947 1022.122, 759.739 999.228 C 773.361 985.545, 781.850 971.463, 790.318 948.500 C 798.572 926.116, 806.142 908.543, 816.106 888.632 C 868.239 784.453, 950.981 700.499, 1055.038 646.198 C 1119.076 612.780, 1188.446 592.783, 1264.500 585.815 C 1282.665 584.150, 1338.469 584.159, 1355.500 585.828 C 1451.964 595.284, 1536.106 624.570, 1613.912 675.771 C 1672.376 714.243, 1727.329 768.686, 1766.672 827.113 C 1817.207 902.163, 1847.120 984.010, 1857.990 1076.978 C 1859.114 1086.591, 1860.896 1098.090, 1861.951 1102.532 C 1870.463 1138.370, 1895.898 1170.743, 1928.500 1187.230 C 1939.487 1192.786, 1946.449 1195.291, 1963.697 1199.892 C 2053.309 1223.794, 2126.518 1276.290, 2176.518 1352.500 C 2217.484 1414.941, 2237.400 1484.631, 2235.673 1559.500 C 2234.356 1616.637, 2222.492 1664.090, 2196.518 1716.114 C 2148.265 1812.763, 2054.757 1884.556, 1948 1906.920 C 1912.383 1914.382, 1915.595 1914.232, 1775 1914.964 C 1632.860 1915.705, 1643.698 1915.086, 1626.500 1923.446 C 1602.157 1935.280, 1584.696 1956.139, 1577.903 1981.500 C 1574.978 1992.418, 1574.702 2013.098, 1577.332 2024.311 C 1581.993 2044.186, 1592.643 2060.934, 1609.104 2074.274 C 1622.259 2084.934, 1637.593 2091.166, 1655.084 2092.961 C 1668.049 2094.291, 1866.559 2094.319, 1895.500 2092.995 C 1972.753 2089.460, 2041.617 2072.036, 2110.500 2038.597 C 2267.540 1962.363, 2379.028 1813.083, 2407.440 1641 C 2423.621 1542.991, 2413.351 1444.973, 2377.263 1353 C 2344.554 1269.637, 2290.329 1194.175, 2222 1136.928 C 2170.281 1093.596, 2111.088 1060.069, 2049 1038.939 C 2040.475 1036.037, 2033.367 1033.568, 2033.204 1033.452 C 2033.041 1033.336, 2031.602 1025.424, 2030.005 1015.871 C 2002.870 853.474, 1921.957 705.117, 1800.500 595.066 C 1686.750 491.997, 1543.773 427.088, 1392.801 409.977 C 1357.415 405.966, 1302.109 404.164, 1271 406.008 M 1236.500 1187.039 C 1203.140 1192.240, 1175.307 1216.137, 1164.337 1249 L 1161.500 1257.500 1161.500 1565 L 1161.500 1872.500 1163.809 1880.500 C 1170.604 1904.042, 1188.242 1924.999, 1210.500 1935.976 C 1225.468 1943.358, 1230.508 1944.438, 1250 1944.438 C 1269.504 1944.438, 1274.549 1943.356, 1289.500 1935.965 C 1311.736 1924.973, 1329.417 1903.970, 1336.191 1880.500 L 1338.500 1872.500 1338.500 1565 L 1338.500 1257.500 1335.663 1249 C 1330.580 1233.774, 1322.997 1221.982, 1310.867 1210.443 C 1299.521 1199.648, 1287.184 1192.747, 1272.500 1188.979 C 1263.249 1186.605, 1245.440 1185.646, 1236.500 1187.039 M 1230.672 2115.567 C 1179.894 2123.466, 1138.687 2159.520, 1124.545 2208.423 C 1120.765 2221.494, 1119.641 2229.879, 1119.641 2245 C 1119.641 2252.425, 1120.164 2261.684, 1120.803 2265.577 C 1127.448 2306.054, 1153.395 2341.737, 1190.128 2360.916 C 1209.300 2370.926, 1227.904 2375.439, 1250 2375.439 C 1284.546 2375.439, 1315.667 2362.853, 1340.569 2338.812 C 1379.876 2300.864, 1391.455 2243.599, 1369.984 2193.343 C 1346.727 2138.909, 1288.737 2106.534, 1230.672 2115.567" stroke="none" fill="#b1b8c0" fill-rule="evenodd"></path>
</svg>