<svg xmlns="http://www.w3.org/2000/svg" fill="none" viewBox="0 0 14 14"><g id="dark-dislay-mode"><path id="Union" fill="#ede4ff" fill-rule="evenodd" d="M7 .25c-2.092 0-3.797.59-4.979 1.771C.84 3.203.25 4.908.25 7s.59 3.797 1.771 4.979C3.203 13.16 4.908 13.75 7 13.75s3.797-.59 4.979-1.771C13.16 10.797 13.75 9.092 13.75 7s-.59-3.797-1.771-4.979C10.797.84 9.092.25 7 .25Z" clip-rule="evenodd"></path><path id="Union_2" fill="#9260f4" fill-rule="evenodd" d="M7.389 2.735a4.246 4.246 0 1 0 2.887 7.36c.199-.185.178-.438.08-.608a.595.595 0 0 0-.508-.296 2.21 2.21 0 1 1 0-4.419.595.595 0 0 0 .508-.296c.098-.17.119-.423-.08-.608a4.232 4.232 0 0 0-2.887-1.133Z" clip-rule="evenodd"></path></g></svg>