<svg xmlns="http://www.w3.org/2000/svg" viewBox="0 0 2500 2500" version="1.1">
	<path d="M 156.831 83.957 C 137.283 87.532, 121.326 96.388, 107 111.612 C 99.067 120.043, 93.869 127.745, 90.059 136.713 C 84.508 149.779, 83.551 155.086, 83.605 172.500 C 83.650 186.924, 83.920 189.368, 86.340 197.307 C 89.257 206.878, 92.309 213.461, 97.786 222 C 100.082 225.579, 279.846 406.088, 612.402 738.750 L 1123.490 1250 612.402 1761.250 C 279.846 2093.912, 100.082 2274.421, 97.786 2278 C 92.309 2286.539, 89.257 2293.122, 86.340 2302.693 C 83.925 2310.615, 83.648 2313.107, 83.587 2327.500 C 83.510 2345.479, 84.964 2352.658, 91.444 2366.314 C 99.987 2384.317, 118.584 2402.239, 136.713 2409.941 C 149.779 2415.492, 155.086 2416.449, 172.500 2416.395 C 186.924 2416.350, 189.368 2416.080, 197.307 2413.660 C 206.878 2410.743, 213.461 2407.691, 222 2402.214 C 225.579 2399.918, 406.088 2220.154, 738.750 1887.598 L 1250 1376.510 1761.250 1887.598 C 2093.912 2220.154, 2274.421 2399.918, 2278 2402.214 C 2286.539 2407.691, 2293.122 2410.743, 2302.693 2413.660 C 2310.615 2416.075, 2313.107 2416.352, 2327.500 2416.413 C 2345.479 2416.490, 2352.658 2415.036, 2366.314 2408.556 C 2384.317 2400.013, 2402.239 2381.416, 2409.941 2363.287 C 2415.492 2350.221, 2416.449 2344.914, 2416.395 2327.500 C 2416.350 2313.076, 2416.080 2310.632, 2413.660 2302.693 C 2410.743 2293.122, 2407.691 2286.539, 2402.214 2278 C 2399.918 2274.421, 2220.154 2093.912, 1887.598 1761.250 L 1376.510 1250 1887.598 738.750 C 2220.154 406.088, 2399.918 225.579, 2402.214 222 C 2407.691 213.461, 2410.743 206.878, 2413.660 197.307 C 2416.080 189.368, 2416.350 186.924, 2416.395 172.500 C 2416.449 155.086, 2415.492 149.779, 2409.941 136.713 C 2402.239 118.584, 2384.317 99.987, 2366.314 91.444 C 2352.658 84.964, 2345.479 83.510, 2327.500 83.587 C 2313.107 83.648, 2310.615 83.925, 2302.693 86.340 C 2293.122 89.257, 2286.539 92.309, 2278 97.786 C 2274.421 100.082, 2093.912 279.846, 1761.250 612.402 L 1250 1123.490 738.750 612.402 C 406.088 279.846, 225.579 100.082, 222 97.786 C 206.295 87.712, 193.968 83.954, 175 83.457 C 167.575 83.262, 159.399 83.488, 156.831 83.957" stroke="none" fill="#b1b8c0" fill-rule="evenodd"></path>
</svg>