<svg xmlns="http://www.w3.org/2000/svg" fill="none" viewBox="0 0 14 14"><g id="disable-bell-notification--disable-silent-notification-off-silence-alarm-bell-alert"><path id="Union" fill="#fff3f1" fill-rule="evenodd" d="M7.02 1.124a3.984 3.984 0 0 0-3.984 3.984c0 .694-.115 1.23-.278 1.642-.05.126-.159.237-.386.386-.047.031-.106.067-.17.107-.192.117-.44.269-.632.439-.42.373-.56.9-.523 1.37.037.456.249.93.637 1.222a.803.803 0 0 0 .081.058c.05.032.119.071.209.114.18.087.45.19.845.29.788.2 2.09.388 4.201.388 2.113 0 3.414-.189 4.202-.388.395-.1.665-.203.845-.29a1.915 1.915 0 0 0 .29-.172c.388-.292.6-.766.637-1.223.038-.468-.103-.996-.523-1.37a4.545 4.545 0 0 0-.631-.438 6.832 6.832 0 0 1-.171-.107c-.228-.149-.336-.26-.386-.386a3.392 3.392 0 0 1-.073-.204 5.704 5.704 0 0 1-.205-1.438A3.984 3.984 0 0 0 7.02 1.124Z" clip-rule="evenodd"></path><path id="Ellipse 85 (Stroke)" fill="#ff392a" fill-rule="evenodd" d="M5.317 12.258a.5.5 0 0 1 .542-.15c.254.086.628.152 1.162.152.534 0 .908-.066 1.162-.152a.5.5 0 0 1 .601.71 2 2 0 0 1-3.526 0 .5.5 0 0 1 .059-.56Z" clip-rule="evenodd"></path><path id="Vector (Stroke)" fill="#ff392a" fill-rule="evenodd" d="M.299.169a.75.75 0 0 0-.13 1.053c4.436 5.681 6.81 8.024 12.606 12.606a.75.75 0 1 0 .93-1.176C7.997 8.139 5.708 5.88 1.351.298A.75.75 0 0 0 .3.168Z" clip-rule="evenodd"></path></g></svg>