<svg xmlns="http://www.w3.org/2000/svg" fill="none" viewBox="0 0 14 14"><g id="hand-held-tablet-writing--tablet-kindle-device-electronics-ipad-writing-digital-paper-notepad"><path id="Subtract" fill="#f1fbfe" fill-rule="evenodd" d="M6.216 3.965c.05-.183.143-.348.272-.48L9.312.601a3.06 3.06 0 0 0-.19-.03C8.133.45 7.119.347 6.086.347S4.04.45 3.051.573A3.135 3.135 0 0 0 .336 3.367c-.117 1.21-.22 2.454-.22 3.725 0 1.27.103 2.514.22 3.724a3.135 3.135 0 0 0 2.715 2.795c.988.123 2.002.226 3.035.226 1.033 0 2.047-.103 3.036-.226a3.135 3.135 0 0 0 2.714-2.795c.117-1.21.22-2.454.22-3.724 0-.354-.008-.705-.022-1.054L10.5 7.49a1.089 1.089 0 0 1-.479.263l-2.183.562C6.57 8.64 5.305 7.362 5.643 6.1l.573-2.135Z" clip-rule="evenodd"></path><path id="Intersect" fill="#64c2eb" d="M3.247 13.635a3.375 3.375 0 0 1-2.93-3.016c-.022-.23-.043-.462-.063-.694l11.663 0c-.02.232-.04.464-.062.694a3.374 3.374 0 0 1-2.93 3.016c-.927.112-1.875.202-2.84.202-.964 0-1.912-.09-2.838-.202Z"></path><path id="Vector" fill="#64c2eb" d="M10.908.852 7.426 4.406l-.573 2.135c-.085.32.235.643.555.56l2.184-.562 3.581-3.39c.595-.564.55-1.561-.101-2.2-.635-.625-1.604-.668-2.164-.097Z"></path></g></svg>