<svg xmlns="http://www.w3.org/2000/svg" fill="none" viewBox="0 0 14 14"><g id="gallery--pages-filter-picture-pagination-image"><path id="Union" fill="#4880ee" fill-rule="evenodd" d="m2.405 1.045-.01.001-.498.048a1.54 1.54 0 0 0-1.379 1.33l-.03.228-.002.014C.372 3.514.25 4.43.25 5.375c0 .944.122 1.86.236 2.71l.002.013.03.229a1.54 1.54 0 0 0 1.379 1.329l.048.004c-.025-.337-.04-.684-.04-1.035 0-1.03.132-2.02.244-2.855l.035-.261 0-.001a2.79 2.79 0 0 1 2.5-2.408l.49-.048.024-.002c.987-.096 2.103-.205 3.254-.205a26.1 26.1 0 0 1 2.195.106l-.039-.291 0-.008-.031-.229a1.54 1.54 0 0 0-1.379-1.329l-.497-.048-.01 0C7.694.947 6.636.844 5.548.844c-1.088 0-2.147.103-3.143.2Zm2.89 3.251c1.002-.097 2.067-.201 3.157-.201 1.09 0 2.156.104 3.158.201l.493.048a1.54 1.54 0 0 1 1.379 1.33l.03.231c.115.853.238 1.774.238 2.72 0 .946-.123 1.867-.237 2.72l-.031.232a1.54 1.54 0 0 1-1.379 1.329l-.493.047c-1.002.098-2.068.202-3.158.202-1.09 0-2.155-.104-3.157-.201l-.493-.048a1.54 1.54 0 0 1-1.379-1.33l-.031-.232c-.114-.852-.237-1.773-.237-2.719s.123-1.867.237-2.72l.031-.232a1.54 1.54 0 0 1 1.379-1.329l.493-.048Zm2.233 4.517c1.13.803 2.098 1.893 2.816 3.002-.626.052-1.254.09-1.892.09-1.024 0-2.022-.097-3.026-.195l-.001 0-.506-.049a.29.29 0 0 1-.257-.248l-.03-.223c-.083-.626-.165-1.24-.204-1.856a8.46 8.46 0 0 1 .632-.491c.724-.514 1.714-.566 2.468-.03Zm2.803-.46c.778 0 1.216-.437 1.216-1.215s-.438-1.216-1.216-1.216-1.215.438-1.215 1.216.437 1.216 1.215 1.216Z" clip-rule="evenodd"></path></g></svg>