<svg xmlns="http://www.w3.org/2000/svg" viewBox="0 0 2500 2500" version="1.1">
	<path d="M 310.500 84.173 C 266.967 88.546, 221.886 106.375, 185 133.808 C 169.979 144.979, 144.979 169.979, 133.808 185 C 105.825 222.626, 88.462 267.100, 84.061 312.424 C 82.567 327.802, 82.567 2172.198, 84.061 2187.576 C 87.143 2219.313, 97.689 2254.125, 112.665 2282 C 132.360 2318.657, 163.060 2352.240, 197.842 2375.176 C 232.099 2397.766, 272.205 2412.033, 312.424 2415.939 C 327.802 2417.433, 2172.198 2417.433, 2187.576 2415.939 C 2212.616 2413.508, 2241.917 2405.783, 2265.116 2395.497 C 2322.645 2369.990, 2369.990 2322.645, 2395.497 2265.116 C 2405.695 2242.115, 2413.543 2212.349, 2415.942 2187.576 C 2417.433 2172.183, 2417.430 327.774, 2415.939 312.424 C 2413.508 287.384, 2405.783 258.083, 2395.497 234.884 C 2369.990 177.355, 2322.645 130.010, 2265.116 104.503 C 2241.917 94.217, 2212.616 86.492, 2187.576 84.061 C 2173.683 82.712, 323.948 82.823, 310.500 84.173 M 321.500 263.498 C 306.190 266.922, 296.340 272.474, 284.407 284.407 C 274.403 294.411, 269.390 302.319, 265.117 314.833 L 262.500 322.500 262.500 1250 L 262.500 2177.500 265.117 2185.167 C 269.390 2197.681, 274.403 2205.589, 284.407 2215.593 C 299.646 2230.831, 313.945 2237.157, 333.650 2237.376 L 344.799 2237.500 938.150 1678.343 C 1264.492 1370.806, 1533.860 1117.336, 1536.744 1115.074 C 1570.164 1088.873, 1612.330 1076.109, 1655.532 1079.117 C 1682.389 1080.987, 1709.588 1089.499, 1731.213 1102.803 C 1734.904 1105.074, 1848.979 1186.498, 1984.713 1283.744 C 2120.446 1380.990, 2232.965 1461.588, 2234.755 1462.849 L 2238.010 1465.144 2237.755 893.822 L 2237.500 322.500 2234.883 314.833 C 2230.610 302.319, 2225.597 294.411, 2215.593 284.407 C 2205.589 274.403, 2197.681 269.390, 2185.167 265.117 L 2177.500 262.500 1252.500 262.328 C 481.865 262.184, 326.499 262.380, 321.500 263.498 M 814.384 498.105 C 656.224 507.188, 523.907 628.690, 501.030 785.846 C 496.656 815.888, 496.486 852.779, 500.584 882.368 C 517.703 1005.971, 602.759 1110.801, 720.581 1153.510 C 783.940 1176.477, 856.603 1179.687, 922 1162.408 C 1053.628 1127.630, 1152.932 1014.940, 1170.588 880.312 C 1174.117 853.395, 1174.096 817.083, 1170.534 790.206 C 1157.813 694.208, 1103.171 607.143, 1022 553.533 C 970.677 519.636, 915.906 501.587, 853.500 498.004 C 834.872 496.935, 834.750 496.935, 814.384 498.105 M 820.050 677.086 C 802.638 678.763, 786.046 683.279, 768.820 691.030 C 735.481 706.032, 706.032 735.481, 691.030 768.820 C 666.305 823.769, 673.024 884.224, 709.185 932.171 C 733.637 964.595, 770.103 985.982, 813 993.061 C 822.634 994.651, 847.190 994.660, 857.500 993.078 C 892.993 987.631, 923.295 972.481, 947.888 947.888 C 978.159 917.617, 994.295 878.539, 994.295 835.500 C 994.295 815.735, 991.537 799.619, 985.054 781.500 C 970.900 741.943, 940.324 708.506, 902.500 691.221 C 884.323 682.914, 868.699 678.779, 848.860 677.023 C 836.182 675.900, 832.274 675.909, 820.050 677.086 M 1127 1746.071 C 843.475 2013.357, 610.157 2233.388, 608.515 2235.027 L 605.531 2238.008 1391.515 2237.754 L 2177.500 2237.500 2185.167 2234.883 C 2197.681 2230.610, 2205.589 2225.597, 2215.593 2215.593 C 2225.597 2205.589, 2230.610 2197.681, 2234.883 2185.167 L 2237.500 2177.500 2237.762 1931.446 L 2238.024 1685.393 1941.555 1472.946 C 1778.497 1356.101, 1644.504 1260.409, 1643.793 1260.297 C 1643.082 1260.186, 1410.525 1478.784, 1127 1746.071" stroke="none" fill="#b1b8c0" fill-rule="evenodd"></path>
</svg>