<svg xmlns="http://www.w3.org/2000/svg" viewBox="0 0 2500 2500" version="1.1">
	<path d="M 1721.500 151.095 C 1678.603 153.544, 1633.004 163.344, 1593 178.714 C 1449.718 233.764, 1347.203 357.837, 1320.104 509 C 1315.720 533.454, 1314.638 546.822, 1312.983 597 C 1311.427 644.174, 1306.822 677.158, 1295.969 718.854 C 1276.243 794.641, 1242.926 859.661, 1190.675 924.341 C 1175.696 942.883, 1170.792 950.323, 1166.903 960.408 C 1162.770 971.125, 1161 981.086, 1161 993.630 C 1161 1018.877, 1169.518 1038.950, 1187.892 1057 C 1203.351 1072.187, 1220.429 1080.056, 1242.093 1081.973 C 1249.283 1082.610, 1325.128 1082.986, 1447.250 1082.991 L 1641 1083 1641.026 1115.750 C 1641.054 1151.591, 1641.916 1164.489, 1645.043 1175.888 C 1650.963 1197.466, 1668.473 1218.775, 1689.660 1230.184 C 1710.743 1241.536, 1741.037 1243.058, 1763.880 1233.911 C 1786.698 1224.775, 1808.466 1201.949, 1815.497 1179.786 C 1819.536 1167.056, 1819.985 1161.216, 1819.992 1121.250 L 1820 1083 2031.250 1082.974 C 2158.741 1082.959, 2246.421 1082.567, 2252.390 1081.987 C 2264.199 1080.838, 2272.025 1078.828, 2281.622 1074.477 C 2303.803 1064.421, 2320.649 1046.372, 2328.948 1023.771 C 2335.691 1005.406, 2335.696 980.237, 2328.960 962.131 C 2325.171 951.946, 2320.098 944.239, 2303.690 923.741 C 2285.235 900.685, 2276.578 888.821, 2265.204 871 C 2226.267 809.992, 2199.352 739.047, 2188.044 667.615 C 2184.288 643.890, 2182.904 626.977, 2181.486 587.500 C 2179.980 545.565, 2178.693 530.943, 2174.400 507 C 2141.176 321.717, 1990.676 178.409, 1803.722 154.037 C 1775.824 150.400, 1749.924 149.473, 1721.500 151.095 M 1724 330.018 C 1673.193 335.285, 1626.645 354.020, 1589 384.353 C 1537.468 425.877, 1504.532 483.321, 1494.927 548.432 C 1493.589 557.497, 1492.694 571.763, 1492.004 595 C 1490.958 630.209, 1490.097 643.806, 1487.508 666 C 1478.764 740.951, 1458.649 812.543, 1426.818 882 C 1421.903 892.725, 1417.635 902.062, 1417.334 902.748 C 1416.898 903.745, 1483.529 903.997, 1747.394 903.997 C 1929.227 903.997, 2078 903.762, 2078 903.474 C 2078 903.186, 2076.415 899.803, 2074.479 895.957 C 2059.837 866.884, 2040.384 816.041, 2030.111 780 C 2012.189 717.123, 2004.466 663.007, 2002.498 586.500 C 2002.187 574.400, 2001.472 560.450, 2000.909 555.500 C 1994.322 497.567, 1969.247 445.883, 1926.886 402.923 C 1890.512 366.035, 1838.064 339.814, 1784 331.488 C 1771.678 329.590, 1736.451 328.727, 1724 330.018 M 805.500 513.676 C 768.262 514.212, 702.473 516.212, 661.500 518.053 C 613.375 520.215, 529.068 525.367, 514 527.066 C 423.720 537.246, 338.667 578.718, 273.810 644.184 C 242.065 676.226, 217.164 711.028, 196.666 752 C 174.111 797.082, 160.778 840.804, 154.582 890 C 152.963 902.852, 147.323 969.632, 142.038 1038.500 C 117.754 1354.995, 118.305 1538.528, 144.528 1868.500 C 154.325 1991.776, 155.656 2003.041, 164.523 2037.675 C 208.230 2208.400, 351.450 2333.106, 522 2348.940 C 558.230 2352.303, 669.570 2357.859, 746.500 2360.143 C 799.355 2361.711, 954.639 2361.711, 1007.500 2360.143 C 1083.625 2357.884, 1195.966 2352.277, 1232 2348.938 C 1362.735 2336.824, 1480.109 2260.032, 1546.772 2143 C 1574.700 2093.971, 1592.682 2039.481, 1599.410 1983.500 C 1604.929 1937.572, 1619.905 1731.098, 1624.433 1638.500 C 1627.760 1570.469, 1627.656 1566.622, 1622.034 1550.180 C 1614.542 1528.264, 1595.575 1507.483, 1574.231 1497.805 C 1554.092 1488.674, 1527.621 1487.726, 1506.533 1495.381 C 1487.198 1502.399, 1466.835 1520.643, 1457.212 1539.571 C 1454.653 1544.605, 1451.202 1554.731, 1449.951 1560.880 C 1449.434 1563.421, 1448.114 1583.950, 1447.018 1606.500 C 1440.688 1736.727, 1425.058 1947.310, 1419.479 1977.514 C 1408.228 2038.436, 1374.154 2092.982, 1324.449 2129.639 C 1297.245 2149.702, 1262.607 2163.903, 1227.500 2169.385 C 1208.344 2172.376, 1097.589 2178.403, 1010.500 2181.192 C 959.277 2182.833, 794.359 2182.827, 743 2181.183 C 655.442 2178.379, 545.784 2172.405, 526.500 2169.388 C 496.333 2164.668, 467.687 2153.980, 441.140 2137.539 C 393.696 2108.158, 354.827 2055.240, 339.379 1999 C 332.654 1974.518, 331.598 1965.227, 322.553 1851 C 308.295 1670.938, 303.573 1568.053, 303.573 1437.500 C 303.573 1344.242, 305.301 1286.370, 311.022 1188 C 316.655 1091.157, 330.270 919.883, 333.956 899.500 C 344.605 840.607, 375.004 789.220, 421.500 751.512 C 444.273 733.043, 477.222 716.924, 507.080 709.645 C 523.891 705.547, 536.690 704.194, 588.500 701.035 C 690.980 694.787, 747.787 692.975, 869.500 692.069 C 966.061 691.350, 966.534 691.336, 974 689.105 C 990.274 684.240, 1007.718 672.488, 1018.709 658.984 C 1025.274 650.918, 1032.196 637.767, 1035.039 627.961 C 1038.015 617.694, 1038.831 596.668, 1036.691 585.360 C 1031.792 559.461, 1014.184 536.178, 989.961 523.569 C 978.086 517.387, 969.124 515.093, 952.500 513.980 C 940.358 513.167, 853.315 512.987, 805.500 513.676 M 762.500 1788.656 C 745.634 1792.253, 731.238 1800.417, 718 1813.892 C 707.873 1824.200, 701.355 1834.728, 696.882 1848 C 694.044 1856.420, 693.629 1859.092, 693.225 1871.500 C 692.898 1881.587, 693.201 1887.777, 694.311 1893.648 C 700.328 1925.473, 725.723 1953.019, 757.500 1962.191 L 765.500 1964.500 877 1964.500 L 988.500 1964.500 996.500 1962.191 C 1022.111 1954.799, 1045.250 1934.084, 1054.880 1909.926 C 1062.908 1889.786, 1063.169 1863.723, 1055.546 1843.512 C 1047.567 1822.357, 1027.082 1801.553, 1005.926 1793.120 C 990.135 1786.826, 993.702 1786.992, 876.292 1787.082 C 785.610 1787.151, 768.444 1787.388, 762.500 1788.656" stroke="none" fill="#9ca3af" fill-rule="evenodd"></path>
</svg>