<svg xmlns="http://www.w3.org/2000/svg" fill="none" viewBox="0 0 14 14"><g id="task-list--task-list-work"><path id="Subtract" fill="#b1b8c0" fill-rule="evenodd" d="M7 .5C5.632.5 4.526.541 3.381.62a2.423 2.423 0 0 0-2.254 2.265A65.81 65.81 0 0 0 1 7c0 1.41.044 2.786.127 4.115a2.423 2.423 0 0 0 2.254 2.265c1.145.079 2.25.12 3.619.12 1.368 0 2.474-.041 3.619-.12a2.423 2.423 0 0 0 2.254-2.265 65.804 65.804 0 0 0 .106-5.81 2.411 2.411 0 0 0-.464-1.367c-.904-1.231-1.636-2.011-2.832-2.934A2.378 2.378 0 0 0 8.28.514 58.466 58.466 0 0 0 7 .5Zm-.891 2.946a.625.625 0 0 1-.088.88c-.384.314-.633.564-.835.848-.204.287-.38.637-.587 1.174a.625.625 0 0 1-1.009.233l-.92-.856a.625.625 0 0 1 .851-.915l.276.256a4.9 4.9 0 0 1 .37-.616c.29-.408.63-.738 1.062-1.092a.625.625 0 0 1 .88.088ZM6.02 8.361a.625.625 0 0 0-.792-.968c-.432.354-.772.684-1.062 1.093a4.909 4.909 0 0 0-.37.615l-.276-.256a.625.625 0 1 0-.85.915l.919.856a.625.625 0 0 0 1.009-.233c.207-.537.383-.886.587-1.173.202-.285.45-.535.835-.85Zm1.428-2.878c0-.345.28-.625.625-.625h2.5a.625.625 0 1 1 0 1.25h-2.5a.625.625 0 0 1-.625-.625Zm.625 3.63a.625.625 0 1 0 0 1.25h2.5a.625.625 0 1 0 0-1.25h-2.5Z" clip-rule="evenodd"></path></g></svg>