<svg xmlns="http://www.w3.org/2000/svg" fill="none" viewBox="0 0 14 14"><g id="countdown-timer--timer-countdown-clock"><path id="Union" fill="#4880ee" fill-rule="evenodd" d="M8.49.107a.75.75 0 1 0-.224 1.483c.617.094 1.16.257 1.632.48A.75.75 0 1 0 10.54.715 7.314 7.314 0 0 0 8.49.107Zm3.29 2.347a.75.75 0 0 1 1.043.197c.332.488.593 1.032.784 1.626a.75.75 0 1 1-1.428.459c-.15-.468-.35-.88-.596-1.24a.75.75 0 0 1 .197-1.042ZM1.5 7A.75.75 0 0 0 0 7c0 2.138.604 3.914 1.845 5.155C3.085 13.397 4.862 14 7 14a.75.75 0 0 0 0-1.5c-1.862 0-3.21-.521-4.095-1.405C2.021 10.21 1.5 8.862 1.5 7ZM14 7a.75.75 0 0 0-1.5 0c0 .891-.12 1.665-.34 2.326a2.941 2.941 0 0 0-.357-.021c-1.242 0-1.94.699-1.94 1.94 0 1.243.698 1.941 1.94 1.941s1.94-.698 1.94-1.94c0-.455-.093-.836-.272-1.138C13.826 9.193 14 8.15 14 7ZM6.364.737a.75.75 0 0 1-.63.853 5.819 5.819 0 0 0-1.632.48A.75.75 0 0 1 3.46.715 7.314 7.314 0 0 1 5.51.107a.75.75 0 0 1 .854.63Zm-3.947 2.76a.75.75 0 1 0-1.24-.846 6.284 6.284 0 0 0-.784 1.626.75.75 0 0 0 1.428.459c.15-.468.35-.88.596-1.24Zm2.21 2.45a.75.75 0 1 0 0 1.5h1.91l1.29 1.612a.75.75 0 0 0 1.17-.937L7.485 6.229a.75.75 0 0 0-.586-.281h-2.27Z" clip-rule="evenodd"></path></g></svg>