<svg xmlns="http://www.w3.org/2000/svg" fill="none" viewBox="0 0 14 14"><g id="recycle-bin-throw-2--remove-delete-empty-bin-trash-garbage"><path id="Union" fill="#ec5f6c" fill-rule="evenodd" d="M7 1.524c-.585 0-1.108.366-1.308.916l-.149.41h2.914l-.15-.41A1.39 1.39 0 0 0 7 1.524Zm-2.717.404-.336.922H.75a.75.75 0 1 0 0 1.5h.766l.377 7.19c.08 1.115.897 2.078 2.044 2.23 2.044.274 4.082.274 6.127 0 1.146-.152 1.964-1.115 2.043-2.23l.377-7.19h.766a.75.75 0 0 0 0-1.5h-3.197l-.336-.922a2.892 2.892 0 0 0-5.434 0Z" clip-rule="evenodd"></path><path id="Union_2" fill="#f9faff" fill-rule="evenodd" d="M6.551 6.07a.702.702 0 0 1 .887.016l-.296.35.296-.35c.767.648 1.193 1.097 1.864 1.883a.5.5 0 0 1-.381.825H7.625l0 2.121a.625.625 0 1 1-1.25 0l0-2.121h-1.34a.5.5 0 0 1-.386-.817c.69-.844 1.131-1.303 1.902-1.908Z" clip-rule="evenodd"></path></g></svg>